<svg width="134" height="316" viewBox="0 0 134 316" fill="none" xmlns="http://www.w3.org/2000/svg">
<path opacity="0.07" d="M4.83682 284.303C2.39498 284.303 0.516649 285.242 0.516649 288.623L0.51665 300.268C0.51665 303.086 2.39498 304.589 4.83682 304.589L8.96915 304.589C29.8187 304.589 20.0513 285.617 38.0833 285.617C38.0833 307.594 44.2818 315.859 65.3192 315.859L102.886 315.859C130.309 315.859 133.315 307.782 133.315 285.805L133.315 275.099C133.315 249.553 128.807 245.421 102.886 245.421L65.6948 245.421C53.4857 245.421 39.586 247.863 38.6468 266.646C15.3555 266.646 24.7472 284.303 8.02999 284.303L4.83682 284.303ZM67.0097 295.385C57.4302 295.385 54.8005 294.07 54.8005 282.236L54.8005 279.043C54.8005 266.646 57.618 265.707 68.3245 265.707L102.322 265.707C115.095 265.707 116.973 267.585 116.973 278.855L116.973 282.8C116.973 293.131 114.907 294.821 103.261 295.385L67.0097 295.385ZM4.83681 196.36C2.39498 196.36 0.516645 197.299 0.516645 200.68L0.516646 211.762C0.516646 214.58 2.39498 216.082 4.83681 216.082L9.15698 216.082C36.3928 216.082 47.0993 184.714 75.8378 184.526L104.764 184.714C115.095 184.714 117.349 187.344 117.349 195.421L117.349 202.183C117.349 211.95 114.156 212.701 103.637 212.701L83.7268 212.701C81.285 212.701 79.4067 213.64 79.4067 217.021L79.4067 228.104C79.4067 230.921 81.285 232.424 83.7268 232.424L108.896 232.424C129.934 232.424 133.315 222.281 133.315 202.558L133.315 194.857C133.315 168.748 125.426 165.179 103.825 164.992L75.8378 164.804C45.7845 164.804 29.443 196.36 8.96915 196.36L4.83681 196.36ZM11.7866 87.8465L4.83681 87.8465C1.45581 87.8465 0.51664 89.7248 0.51664 92.1666L0.516642 122.596C0.516643 142.882 6.15165 150.395 26.6255 150.395L104.764 150.395C126.553 150.395 133.315 144.948 133.315 121.469L133.315 111.889C133.315 88.4099 127.304 82.9628 103.825 82.9628L66.4462 82.9628C48.0385 82.9628 38.0833 85.029 38.0833 110.386L38.0833 116.773C38.0833 121.281 38.6468 126.352 41.4643 130.672L29.8186 130.672C20.0513 130.672 16.1068 129.921 16.1068 122.596L16.1068 92.1666C16.1068 89.7248 14.6042 87.8465 11.7866 87.8465ZM66.634 130.672C58.1815 130.672 54.0492 130.672 54.0491 119.215L54.0491 114.143C54.0491 105.127 56.6788 102.685 66.2583 102.685L104.013 102.685C116.034 102.685 117.349 105.315 117.349 115.27L117.349 118.463C117.349 128.982 114.907 130.672 103.825 130.672L66.634 130.672ZM0.516637 16.1704C0.516637 18.9879 2.39497 20.4906 4.8368 20.4906L24.3715 20.4906C34.8901 20.4906 38.0833 21.6176 38.0833 33.6389L38.0833 41.9036C38.0833 44.3454 39.586 46.2237 42.4035 46.2237L50.4803 46.2237C53.8613 46.2237 54.8005 44.3454 54.8005 41.9036L54.8005 33.4511C54.8005 21.6176 56.3031 20.4906 66.2583 20.4906L103.074 20.4906C115.846 20.4906 116.785 24.2472 116.785 34.0146L116.785 38.8982C116.785 49.2291 113.968 51.1074 101.947 51.1074L83.7268 51.1074C81.285 51.1074 79.4067 52.0466 79.4067 55.4276L79.4067 67.0732C79.4067 69.8907 81.285 71.3934 83.7268 71.3934L102.886 71.3934C127.492 71.3934 133.315 64.4436 133.315 41.7157L133.315 29.8822C133.315 6.59091 127.304 0.0167415 102.322 0.0167426L61.7503 0.0167444C56.6788 0.0167446 48.602 3.77341 46.7236 10.9111L45.7845 10.9111C41.2765 5.65175 34.3266 0.0167456 25.3106 0.016746L4.8368 0.0167469C2.39497 0.016747 0.516637 0.955913 0.516637 4.33691L0.516637 16.1704Z" fill="white"/>
</svg>
