<svg width="20" height="16" viewBox="0 0 20 16" fill="none" xmlns="http://www.w3.org/2000/svg">
<path d="M17 0H3C2.20435 0 1.44129 0.316071 0.87868 0.87868C0.316071 1.44129 0 2.20435 0 3V13C0 13.7956 0.316071 14.5587 0.87868 15.1213C1.44129 15.6839 2.20435 16 3 16H17C17.7956 16 18.5587 15.6839 19.1213 15.1213C19.6839 14.5587 20 13.7956 20 13V3C20 2.20435 19.6839 1.44129 19.1213 0.87868C18.5587 0.316071 17.7956 0 17 0ZM3 2H17C17.2652 2 17.5196 2.10536 17.7071 2.29289C17.8946 2.48043 18 2.73478 18 3V4H2V3C2 2.73478 2.10536 2.48043 2.29289 2.29289C2.48043 2.10536 2.73478 2 3 2ZM18 13C18 13.2652 17.8946 13.5196 17.7071 13.7071C17.5196 13.8946 17.2652 14 17 14H3C2.73478 14 2.48043 13.8946 2.29289 13.7071C2.10536 13.5196 2 13.2652 2 13V6H18V13ZM4 11C4 10.7348 4.10536 10.4804 4.29289 10.2929C4.48043 10.1054 4.73478 10 5 10H11C11.2652 10 11.5196 10.1054 11.7071 10.2929C11.8946 10.4804 12 10.7348 12 11C12 11.2652 11.8946 11.5196 11.7071 11.7071C11.5196 11.8946 11.2652 12 11 12H5C4.73478 12 4.48043 11.8946 4.29289 11.7071C4.10536 11.5196 4 11.2652 4 11Z" fill="white"/>
</svg>
