<svg width="11" height="11" viewBox="0 0 11 11" fill="none" xmlns="http://www.w3.org/2000/svg">
<path d="M10.4962 9.25375C10.661 9.41851 10.7536 9.64198 10.7536 9.87499C10.7536 10.108 10.661 10.3315 10.4962 10.4962C10.3315 10.661 10.108 10.7536 9.87499 10.7536C9.64198 10.7536 9.41851 10.661 9.25375 10.4962L5.49999 6.73374L1.74624 10.4962C1.58148 10.661 1.35801 10.7536 1.12499 10.7536C0.891981 10.7536 0.66851 10.661 0.503744 10.4962C0.338979 10.3315 0.246414 10.108 0.246414 9.87499C0.246414 9.64198 0.338979 9.41851 0.503744 9.25375L4.26624 5.49999L0.503744 1.74624C0.338979 1.58148 0.246414 1.35801 0.246414 1.12499C0.246414 0.891981 0.338979 0.66851 0.503744 0.503744C0.66851 0.338979 0.891981 0.246414 1.12499 0.246414C1.35801 0.246414 1.58148 0.338979 1.74624 0.503744L5.49999 4.26624L9.25375 0.503744C9.41851 0.338979 9.64198 0.246414 9.87499 0.246414C10.108 0.246414 10.3315 0.338979 10.4962 0.503744C10.661 0.66851 10.7536 0.891981 10.7536 1.12499C10.7536 1.35801 10.661 1.58148 10.4962 1.74624L6.73374 5.49999L10.4962 9.25375Z" fill="#CE1B1B"/>
</svg>
