<svg width="44" height="44" viewBox="0 0 44 44" fill="none" xmlns="http://www.w3.org/2000/svg">
<path d="M42.9 12.65L34.65 20.9C34.4384 21.1381 34.1804 21.3304 33.8917 21.4652C33.6031 21.6 33.29 21.6743 32.9716 21.6837C32.6531 21.6931 32.3362 21.6373 32.0401 21.5197C31.7441 21.4022 31.4752 21.2253 31.2499 21.0001C31.0247 20.7748 30.8478 20.5059 30.7303 20.2099C30.6127 19.9138 30.5569 19.5969 30.5663 19.2784C30.5757 18.96 30.65 18.6469 30.7848 18.3583C30.9196 18.0696 31.1119 17.8116 31.35 17.6L35.2 13.75H5.5C4.77066 13.75 4.07118 13.4603 3.55546 12.9445C3.03973 12.4288 2.75 11.7293 2.75 11C2.75 10.2707 3.03973 9.57118 3.55546 9.05546C4.07118 8.53973 4.77066 8.25 5.5 8.25H35.2L31.35 4.4C31.1119 4.18839 30.9196 3.93035 30.7848 3.64172C30.65 3.35309 30.5757 3.03996 30.5663 2.72155C30.5569 2.40314 30.6127 2.08618 30.7303 1.79012C30.8478 1.49406 31.0247 1.22516 31.2499 0.999911C31.4752 0.774665 31.7441 0.597834 32.0401 0.480276C32.3362 0.362717 32.6531 0.306911 32.9716 0.316285C33.29 0.325658 33.6031 0.400011 33.8917 0.534782C34.1804 0.669552 34.4384 0.861895 34.65 1.1L42.9 9.35C43.3366 9.78813 43.5818 10.3815 43.5818 11C43.5818 11.6185 43.3366 12.2119 42.9 12.65ZM38.5 30.25H8.8L12.65 26.4C13.046 25.9544 13.2568 25.3743 13.2393 24.7784C13.2217 24.1826 12.9772 23.6159 12.5556 23.1944C12.1341 22.7728 11.5674 22.5283 10.9716 22.5107C10.3757 22.4932 9.7956 22.704 9.35 23.1L1.1 31.35C0.663384 31.7881 0.418221 32.3815 0.418221 33C0.418221 33.6185 0.663384 34.2119 1.1 34.65L9.35 42.9C9.56161 43.1381 9.81965 43.3304 10.1083 43.4652C10.3969 43.6 10.71 43.6743 11.0284 43.6837C11.3469 43.6931 11.6638 43.6373 11.9599 43.5197C12.2559 43.4022 12.5248 43.2253 12.7501 43.0001C12.9753 42.7748 13.1522 42.5059 13.2697 42.2099C13.3873 41.9138 13.4431 41.5969 13.4337 41.2784C13.4243 40.96 13.35 40.6469 13.2152 40.3583C13.0804 40.0696 12.8881 39.8116 12.65 39.6L8.8 35.75H38.5C39.2293 35.75 39.9288 35.4603 40.4445 34.9445C40.9603 34.4288 41.25 33.7293 41.25 33C41.25 32.2706 40.9603 31.5712 40.4445 31.0555C39.9288 30.5397 39.2293 30.25 38.5 30.25Z" fill="#222221"/>
</svg>
