<svg width="62" height="56" viewBox="0 0 62 56" fill="none" xmlns="http://www.w3.org/2000/svg">
<path d="M26.765 11.5L28.25 9.8775V19.75C28.25 20.4793 28.5397 21.1788 29.0555 21.6945C29.5712 22.2103 30.2707 22.5 31 22.5C31.7293 22.5 32.4288 22.2103 32.9445 21.6945C33.4603 21.1788 33.75 20.4793 33.75 19.75V9.8775L35.235 11.39C35.4846 11.6719 35.7895 11.8996 36.1307 12.0589C36.4719 12.2182 36.8422 12.3057 37.2186 12.316C37.5951 12.3263 37.9696 12.2592 38.319 12.1188C38.6684 11.9785 38.9853 11.7678 39.25 11.5C39.5078 11.2444 39.7123 10.9402 39.852 10.6051C39.9916 10.27 40.0634 9.91053 40.0634 9.5475C40.0634 9.18447 39.9916 8.82503 39.852 8.48991C39.7123 8.1548 39.5078 7.85065 39.25 7.595L32.9525 1.2975C32.691 1.04714 32.3826 0.850885 32.045 0.72C31.3755 0.44495 30.6245 0.44495 29.955 0.72C29.6174 0.850885 29.309 1.04714 29.0475 1.2975L22.75 7.485C22.2176 8.01742 21.9185 8.73954 21.9185 9.4925C21.9185 10.2455 22.2176 10.9676 22.75 11.5C23.2824 12.0324 24.0045 12.3315 24.7575 12.3315C25.5105 12.3315 26.2326 12.0324 26.765 11.5ZM31 28C29.3683 28 27.7733 28.4839 26.4165 29.3904C25.0598 30.2969 24.0024 31.5854 23.378 33.0929C22.7536 34.6003 22.5902 36.2591 22.9085 37.8595C23.2268 39.4598 24.0126 40.9298 25.1664 42.0836C26.3202 43.2374 27.7902 44.0231 29.3905 44.3415C30.9908 44.6598 32.6496 44.4964 34.1571 43.872C35.6646 43.2476 36.9531 42.1902 37.8596 40.8334C38.7661 39.4767 39.25 37.8817 39.25 36.25C39.25 34.062 38.3808 31.9635 36.8336 30.4164C35.2865 28.8692 33.188 28 31 28ZM31 39C30.4561 39 29.9244 38.8387 29.4722 38.5365C29.0199 38.2344 28.6675 37.8049 28.4593 37.3024C28.2512 36.7999 28.1967 36.2469 28.3028 35.7135C28.4089 35.18 28.6709 34.69 29.0555 34.3055C29.4401 33.9209 29.9301 33.6589 30.4635 33.5528C30.997 33.4467 31.5499 33.5012 32.0524 33.7093C32.5549 33.9175 32.9844 34.2699 33.2865 34.7222C33.5887 35.1744 33.75 35.7061 33.75 36.25C33.75 36.9793 33.4603 37.6788 32.9445 38.1945C32.4288 38.7103 31.7293 39 31 39ZM11.75 36.25C11.75 36.7939 11.9113 37.3256 12.2135 37.7778C12.5156 38.2301 12.9451 38.5825 13.4476 38.7907C13.9501 38.9988 14.5031 39.0533 15.0365 38.9472C15.5699 38.841 16.0599 38.5791 16.4445 38.1945C16.8291 37.8099 17.0911 37.3199 17.1972 36.7865C17.3033 36.253 17.2488 35.7001 17.0407 35.1976C16.8325 34.6951 16.4801 34.2656 16.0278 33.9635C15.5756 33.6613 15.0439 33.5 14.5 33.5C13.7707 33.5 13.0712 33.7897 12.5555 34.3055C12.0397 34.8212 11.75 35.5207 11.75 36.25ZM50.25 36.25C50.25 35.7061 50.0887 35.1744 49.7865 34.7222C49.4844 34.2699 49.0549 33.9175 48.5524 33.7093C48.0499 33.5012 47.4969 33.4467 46.9635 33.5528C46.43 33.6589 45.94 33.9209 45.5555 34.3055C45.1709 34.69 44.909 35.18 44.8028 35.7135C44.6967 36.2469 44.7512 36.7999 44.9593 37.3024C45.1675 37.8049 45.5199 38.2344 45.9722 38.5365C46.4244 38.8387 46.9561 39 47.5 39C48.2293 39 48.9288 38.7103 49.4445 38.1945C49.9603 37.6788 50.25 36.9793 50.25 36.25ZM53 17H42C41.2707 17 40.5712 17.2897 40.0555 17.8055C39.5397 18.3212 39.25 19.0207 39.25 19.75C39.25 20.4793 39.5397 21.1788 40.0555 21.6945C40.5712 22.2103 41.2707 22.5 42 22.5H53C53.7293 22.5 54.4288 22.7897 54.9445 23.3055C55.4603 23.8212 55.75 24.5207 55.75 25.25V47.25C55.75 47.9793 55.4603 48.6788 54.9445 49.1945C54.4288 49.7103 53.7293 50 53 50H9C8.27065 50 7.57118 49.7103 7.05546 49.1945C6.53973 48.6788 6.25 47.9793 6.25 47.25V25.25C6.25 24.5207 6.53973 23.8212 7.05546 23.3055C7.57118 22.7897 8.27065 22.5 9 22.5H20C20.7293 22.5 21.4288 22.2103 21.9445 21.6945C22.4603 21.1788 22.75 20.4793 22.75 19.75C22.75 19.0207 22.4603 18.3212 21.9445 17.8055C21.4288 17.2897 20.7293 17 20 17H9C6.81196 17 4.71354 17.8692 3.16637 19.4164C1.61919 20.9635 0.75 23.062 0.75 25.25V47.25C0.75 49.438 1.61919 51.5365 3.16637 53.0836C4.71354 54.6308 6.81196 55.5 9 55.5H53C55.188 55.5 57.2865 54.6308 58.8336 53.0836C60.3808 51.5365 61.25 49.438 61.25 47.25V25.25C61.25 23.062 60.3808 20.9635 58.8336 19.4164C57.2865 17.8692 55.188 17 53 17Z" fill="#222221"/>
</svg>
