<svg width="50" height="56" viewBox="0 0 50 56" fill="none" xmlns="http://www.w3.org/2000/svg">
<path d="M47 17L30.5 2.535C28.9874 1.18213 27.0293 0.434189 25 0.434189C22.9707 0.434189 21.0126 1.18213 19.5 2.535L3 17C2.12651 17.7812 1.42948 18.7395 0.955299 19.8112C0.481122 20.8828 0.240686 22.0432 0.250001 23.215V47.25C0.250001 49.438 1.1192 51.5365 2.66637 53.0836C4.21355 54.6308 6.31197 55.5 8.5 55.5H41.5C43.688 55.5 45.7865 54.6308 47.3336 53.0836C48.8808 51.5365 49.75 49.438 49.75 47.25V23.1875C49.7554 22.0203 49.5131 20.8652 49.039 19.7986C48.565 18.732 47.87 17.7781 47 17ZM30.5 50H19.5V36.25C19.5 35.5207 19.7897 34.8212 20.3055 34.3055C20.8212 33.7897 21.5207 33.5 22.25 33.5H27.75C28.4793 33.5 29.1788 33.7897 29.6945 34.3055C30.2103 34.8212 30.5 35.5207 30.5 36.25V50ZM44.25 47.25C44.25 47.9793 43.9603 48.6788 43.4445 49.1945C42.9288 49.7103 42.2293 50 41.5 50H36V36.25C36 34.062 35.1308 31.9635 33.5836 30.4164C32.0365 28.8692 29.938 28 27.75 28H22.25C20.062 28 17.9635 28.8692 16.4164 30.4164C14.8692 31.9635 14 34.062 14 36.25V50H8.5C7.77066 50 7.07118 49.7103 6.55546 49.1945C6.03973 48.6788 5.75 47.9793 5.75 47.25V23.1875C5.7505 22.797 5.83413 22.4112 5.99535 22.0555C6.15656 21.6999 6.39166 21.3827 6.685 21.125L23.185 6.6875C23.6868 6.24662 24.332 6.00348 25 6.00348C25.668 6.00348 26.3132 6.24662 26.815 6.6875L43.315 21.125C43.6083 21.3827 43.8434 21.6999 44.0047 22.0555C44.1659 22.4112 44.2495 22.797 44.25 23.1875V47.25Z" fill="#222221"/>
</svg>
