<svg width="56" height="56" viewBox="0 0 56 56" fill="none" xmlns="http://www.w3.org/2000/svg">
<path d="M15.25 39C16.344 39 17.3932 38.5654 18.1668 37.7918C18.9404 37.0182 19.375 35.969 19.375 34.875C19.3884 34.7378 19.3884 34.5997 19.375 34.4625L27.0475 26.79H27.68H28.3125L32.74 31.2175C32.74 31.2175 32.74 31.355 32.74 31.4375C32.74 32.5315 33.1746 33.5807 33.9482 34.3543C34.7218 35.1279 35.771 35.5625 36.865 35.5625C37.959 35.5625 39.0082 35.1279 39.7818 34.3543C40.5554 33.5807 40.99 32.5315 40.99 31.4375V31.2175L51 21.125C51.8158 21.125 52.6134 20.8831 53.2917 20.4298C53.9701 19.9766 54.4988 19.3323 54.811 18.5786C55.1232 17.8248 55.2049 16.9954 55.0457 16.1953C54.8866 15.3951 54.4937 14.6601 53.9168 14.0832C53.3399 13.5063 52.6049 13.1134 51.8047 12.9543C51.0046 12.7951 50.1752 12.8768 49.4214 13.189C48.6677 13.5012 48.0234 14.0299 47.5702 14.7083C47.1169 15.3866 46.875 16.1842 46.875 17C46.8616 17.1372 46.8616 17.2753 46.875 17.4125L36.9475 27.34H36.5075L31.75 22.5C31.75 21.406 31.3154 20.3568 30.5418 19.5832C29.7682 18.8096 28.719 18.375 27.625 18.375C26.531 18.375 25.4818 18.8096 24.7082 19.5832C23.9346 20.3568 23.5 21.406 23.5 22.5L15.25 30.75C14.156 30.75 13.1068 31.1846 12.3332 31.9582C11.5596 32.7318 11.125 33.781 11.125 34.875C11.125 35.969 11.5596 37.0182 12.3332 37.7918C13.1068 38.5654 14.156 39 15.25 39ZM52.375 50H5.625V3.25C5.625 2.52065 5.33527 1.82118 4.81954 1.30546C4.30382 0.789731 3.60435 0.5 2.875 0.5C2.14565 0.5 1.44618 0.789731 0.930456 1.30546C0.414731 1.82118 0.125 2.52065 0.125 3.25V52.75C0.125 53.4793 0.414731 54.1788 0.930456 54.6945C1.44618 55.2103 2.14565 55.5 2.875 55.5H52.375C53.1043 55.5 53.8038 55.2103 54.3195 54.6945C54.8353 54.1788 55.125 53.4793 55.125 52.75C55.125 52.0207 54.8353 51.3212 54.3195 50.8055C53.8038 50.2897 53.1043 50 52.375 50Z" fill="#222221"/>
</svg>
