<svg width="56" height="56" viewBox="0 0 56 56" fill="none" xmlns="http://www.w3.org/2000/svg">
<path d="M33.5 17H36.25C36.9793 17 37.6788 16.7103 38.1945 16.1945C38.7103 15.6788 39 14.9793 39 14.25C39 13.5207 38.7103 12.8212 38.1945 12.3055C37.6788 11.7897 36.9793 11.5 36.25 11.5H33.5C32.7707 11.5 32.0712 11.7897 31.5555 12.3055C31.0397 12.8212 30.75 13.5207 30.75 14.25C30.75 14.9793 31.0397 15.6788 31.5555 16.1945C32.0712 16.7103 32.7707 17 33.5 17ZM33.5 28H36.25C36.9793 28 37.6788 27.7103 38.1945 27.1945C38.7103 26.6788 39 25.9793 39 25.25C39 24.5207 38.7103 23.8212 38.1945 23.3055C37.6788 22.7897 36.9793 22.5 36.25 22.5H33.5C32.7707 22.5 32.0712 22.7897 31.5555 23.3055C31.0397 23.8212 30.75 24.5207 30.75 25.25C30.75 25.9793 31.0397 26.6788 31.5555 27.1945C32.0712 27.7103 32.7707 28 33.5 28ZM19.75 17H22.5C23.2293 17 23.9288 16.7103 24.4445 16.1945C24.9603 15.6788 25.25 14.9793 25.25 14.25C25.25 13.5207 24.9603 12.8212 24.4445 12.3055C23.9288 11.7897 23.2293 11.5 22.5 11.5H19.75C19.0207 11.5 18.3212 11.7897 17.8055 12.3055C17.2897 12.8212 17 13.5207 17 14.25C17 14.9793 17.2897 15.6788 17.8055 16.1945C18.3212 16.7103 19.0207 17 19.75 17ZM19.75 28H22.5C23.2293 28 23.9288 27.7103 24.4445 27.1945C24.9603 26.6788 25.25 25.9793 25.25 25.25C25.25 24.5207 24.9603 23.8212 24.4445 23.3055C23.9288 22.7897 23.2293 22.5 22.5 22.5H19.75C19.0207 22.5 18.3212 22.7897 17.8055 23.3055C17.2897 23.8212 17 24.5207 17 25.25C17 25.9793 17.2897 26.6788 17.8055 27.1945C18.3212 27.7103 19.0207 28 19.75 28ZM52.75 50H50V3.25C50 2.52065 49.7103 1.82118 49.1945 1.30546C48.6788 0.789731 47.9793 0.5 47.25 0.5H8.75C8.02065 0.5 7.32118 0.789731 6.80546 1.30546C6.28973 1.82118 6 2.52065 6 3.25V50H3.25C2.52065 50 1.82118 50.2897 1.30546 50.8055C0.789731 51.3212 0.5 52.0207 0.5 52.75C0.5 53.4793 0.789731 54.1788 1.30546 54.6945C1.82118 55.2103 2.52065 55.5 3.25 55.5H52.75C53.4793 55.5 54.1788 55.2103 54.6945 54.6945C55.2103 54.1788 55.5 53.4793 55.5 52.75C55.5 52.0207 55.2103 51.3212 54.6945 50.8055C54.1788 50.2897 53.4793 50 52.75 50ZM30.75 50H25.25V39H30.75V50ZM44.5 50H36.25V36.25C36.25 35.5207 35.9603 34.8212 35.4445 34.3055C34.9288 33.7897 34.2293 33.5 33.5 33.5H22.5C21.7707 33.5 21.0712 33.7897 20.5555 34.3055C20.0397 34.8212 19.75 35.5207 19.75 36.25V50H11.5V6H44.5V50Z" fill="#222221"/>
</svg>
