<svg width="56" height="50" viewBox="0 0 56 50" fill="none" xmlns="http://www.w3.org/2000/svg">
<path d="M47.25 8.5H39V5.75C39 4.29131 38.4205 2.89236 37.3891 1.86091C36.3576 0.829462 34.9587 0.25 33.5 0.25H22.5C21.0413 0.25 19.6424 0.829462 18.6109 1.86091C17.5795 2.89236 17 4.29131 17 5.75V8.5H8.75C6.56196 8.5 4.46354 9.36919 2.91637 10.9164C1.36919 12.4635 0.5 14.562 0.5 16.75V41.5C0.5 43.688 1.36919 45.7865 2.91637 47.3336C4.46354 48.8808 6.56196 49.75 8.75 49.75H47.25C49.438 49.75 51.5365 48.8808 53.0836 47.3336C54.6308 45.7865 55.5 43.688 55.5 41.5V16.75C55.5 14.562 54.6308 12.4635 53.0836 10.9164C51.5365 9.36919 49.438 8.5 47.25 8.5ZM22.5 5.75H33.5V8.5H22.5V5.75ZM50 41.5C50 42.2293 49.7103 42.9288 49.1945 43.4445C48.6788 43.9603 47.9793 44.25 47.25 44.25H8.75C8.02065 44.25 7.32118 43.9603 6.80546 43.4445C6.28973 42.9288 6 42.2293 6 41.5V27.75H17V30.5C17 31.2293 17.2897 31.9288 17.8055 32.4445C18.3212 32.9603 19.0207 33.25 19.75 33.25C20.4793 33.25 21.1788 32.9603 21.6945 32.4445C22.2103 31.9288 22.5 31.2293 22.5 30.5V27.75H33.5V30.5C33.5 31.2293 33.7897 31.9288 34.3055 32.4445C34.8212 32.9603 35.5207 33.25 36.25 33.25C36.9793 33.25 37.6788 32.9603 38.1945 32.4445C38.7103 31.9288 39 31.2293 39 30.5V27.75H50V41.5ZM50 22.25H6V16.75C6 16.0207 6.28973 15.3212 6.80546 14.8055C7.32118 14.2897 8.02065 14 8.75 14H47.25C47.9793 14 48.6788 14.2897 49.1945 14.8055C49.7103 15.3212 50 16.0207 50 16.75V22.25Z" fill="#222221"/>
</svg>
