<svg width="138" height="456" viewBox="0 0 138 456" fill="none" xmlns="http://www.w3.org/2000/svg">
<path opacity="0.07" d="M34.9456 375.921L34.9496 373.921L34.9456 373.921L34.9456 375.921ZM129.801 376.109L129.798 378.109L129.801 378.109L129.801 376.109ZM12.9692 405.411L14.9692 405.411L14.9692 404.278L13.9981 403.696L12.9692 405.411ZM12.9692 406.35L14.0534 408.031L14.9692 407.44L14.9692 406.35L12.9692 406.35ZM100.433 399.776C100.433 397.72 99.8509 395.984 98.4829 394.823C97.1808 393.718 95.532 393.456 94.1132 393.456L94.1132 397.456C95.1362 397.456 95.6474 397.663 95.895 397.873C96.0766 398.027 96.4333 398.451 96.4333 399.776L100.433 399.776ZM94.1132 393.456L33.443 393.456L33.443 397.456L94.1132 397.456L94.1132 393.456ZM33.443 393.456C29.1757 393.456 26.3202 393.144 24.536 392.206C23.7198 391.777 23.1593 391.229 22.7768 390.492C22.3784 389.725 22.1068 388.624 22.1068 387.003L18.1068 387.003C18.1068 389.045 18.4457 390.832 19.2271 392.336C20.0244 393.871 21.2132 394.978 22.6745 395.747C25.4452 397.203 29.2578 397.456 33.443 397.456L33.443 393.456ZM22.1068 387.003C22.1068 384.913 22.1475 383.374 22.3815 382.165C22.6041 381.014 22.9704 380.337 23.5129 379.848C24.0948 379.322 25.1002 378.814 26.9797 378.455C28.8555 378.097 31.4201 377.921 34.9456 377.921L34.9456 373.921C31.3335 373.921 28.4744 374.097 26.2297 374.526C23.9886 374.954 22.1765 375.666 20.8331 376.878C19.4503 378.126 18.7835 379.703 18.4543 381.405C18.1365 383.048 18.1068 384.961 18.1068 387.003L22.1068 387.003ZM34.9417 377.921L129.798 378.109L129.805 374.109L34.9496 373.921L34.9417 377.921ZM129.801 378.109L131.68 378.109L131.68 374.109L129.801 374.109L129.801 378.109ZM131.68 378.109C133.304 378.109 134.909 377.605 136.125 376.463C137.361 375.302 138 373.663 138 371.789L134 371.789C134 372.732 133.7 373.253 133.386 373.548C133.052 373.861 132.497 374.109 131.68 374.109L131.68 378.109ZM138 371.789L138 360.331L134 360.331L134 371.789L138 371.789ZM138 360.331C138 358.275 137.418 356.539 136.05 355.378C134.747 354.273 133.099 354.011 131.68 354.011L131.68 358.011C132.703 358.011 133.214 358.218 133.462 358.428C133.643 358.582 134 359.006 134 360.331L138 360.331ZM131.68 354.011L32.316 354.011L32.316 358.011L131.68 358.011L131.68 354.011ZM32.316 354.011C17.6383 354.011 9.51146 357.906 5.29408 364.541C1.23749 370.923 1.20182 379.358 1.20182 387.191L5.20182 387.191C5.20182 379.058 5.35398 371.903 8.66985 366.686C11.8249 361.723 18.2552 358.011 32.316 358.011L32.316 354.011ZM1.20182 387.191C1.20182 394.959 5.64359 403.348 11.9402 407.126L13.9981 403.696C9.0247 400.712 5.20182 393.698 5.20182 387.191L1.20182 387.191ZM10.9692 405.411L10.9692 406.35L14.9692 406.35L14.9692 405.411L10.9692 405.411ZM11.8849 404.669C8.8106 406.653 6.083 409.031 4.15487 412.491C2.23046 415.944 1.20182 420.296 1.20182 426.072L5.20182 426.072C5.20182 420.767 6.14543 417.136 7.64898 414.438C9.1488 411.746 11.3049 409.804 14.0534 408.031L11.8849 404.669ZM1.20182 426.072C1.20182 433.651 2.07804 441.495 6.42349 447.444C10.8722 453.535 18.5941 457.187 31.189 457.187L31.189 453.187C19.3656 453.187 13.0939 449.795 9.65357 445.085C6.11002 440.234 5.20182 433.521 5.20182 426.072L1.20182 426.072ZM31.189 457.187L131.68 457.187L131.68 453.187L31.189 453.187L31.189 457.187ZM131.68 457.187C133.304 457.187 134.909 456.683 136.125 455.541C137.361 454.38 138 452.741 138 450.866L134 450.866C134 451.809 133.7 452.331 133.386 452.625C133.052 452.939 132.497 453.187 131.68 453.187L131.68 457.187ZM138 450.866L138 439.596L134 439.596L134 450.866L138 450.866ZM138 439.596C138 437.541 137.418 435.804 136.05 434.643C134.747 433.539 133.099 433.276 131.68 433.276L131.68 437.276C132.703 437.276 133.214 437.483 133.462 437.694C133.643 437.848 134 438.271 134 439.596L138 439.596ZM131.68 433.276L31.9403 433.276L31.9403 437.276L131.68 437.276L131.68 433.276ZM31.9403 433.276C26.8578 433.276 24.6466 432.215 23.5842 431.001C22.4751 429.733 22.1068 427.759 22.1068 424.57L18.1068 424.57C18.1068 427.767 18.3959 431.146 20.5739 433.635C22.7987 436.177 26.5042 437.276 31.9403 437.276L31.9403 433.276ZM22.1068 424.57C22.1068 421.602 22.8057 420.352 24.0611 419.585C25.6393 418.62 28.5297 418.117 33.8187 418.117L33.8187 414.117C28.5889 414.117 24.6234 414.553 21.9753 416.172C19.0045 417.987 18.1068 420.963 18.1068 424.57L22.1068 424.57ZM33.8187 418.117L94.1132 418.117L94.1132 414.117L33.8187 414.117L33.8187 418.117ZM94.1132 418.117C95.7377 418.117 97.3425 417.614 98.5583 416.471C99.7944 415.31 100.433 413.672 100.433 411.797L96.4333 411.797C96.4333 412.74 96.1331 413.262 95.8196 413.556C95.4858 413.87 94.9305 414.117 94.1132 414.117L94.1132 418.117ZM100.433 411.797L100.433 399.776L96.4333 399.776L96.4333 411.797L100.433 411.797ZM45.84 291.321L47.5041 292.431L49.577 289.321L45.84 289.321L45.84 291.321ZM28.935 341.473L28.935 339.473L28.9242 339.473L28.9135 339.473L28.935 341.473ZM35.2551 337.152L35.2551 326.07L31.2551 326.07L31.2551 337.152L35.2551 337.152ZM35.2551 326.07C35.2551 324.014 34.6727 322.278 33.3047 321.117C32.0026 320.012 30.3538 319.75 28.935 319.75L28.935 323.75C29.958 323.75 30.4693 323.957 30.7168 324.167C30.8984 324.321 31.2551 324.745 31.2551 326.07L35.2551 326.07ZM28.935 319.75C26.382 319.75 24.8131 318.857 23.808 317.49C22.7284 316.021 22.1068 313.737 22.1068 310.668L18.1068 310.668C18.1068 314.173 18.8 317.43 20.5849 319.859C22.4443 322.389 25.2894 323.75 28.935 323.75L28.935 319.75ZM22.1068 310.668L22.1068 301.84L18.1068 301.84L18.1068 310.668L22.1068 310.668ZM22.1068 301.84C22.1068 298.453 22.6398 296.571 23.841 295.416C25.0831 294.222 27.5391 293.321 32.6917 293.321L32.6917 289.321C27.3256 289.321 23.4892 290.205 21.0685 292.533C18.607 294.899 18.1068 298.277 18.1068 301.84L22.1068 301.84ZM32.6917 293.321L45.84 293.321L45.84 289.321L32.6917 289.321L32.6917 293.321ZM44.1759 290.212C42.141 293.264 40.0833 297.777 40.0833 303.53L44.0833 303.53C44.0833 298.765 45.7823 295.013 47.5041 292.431L44.1759 290.212ZM40.0833 303.53L40.0833 309.165L44.0833 309.165L44.0833 303.53L40.0833 303.53ZM40.0833 309.165C40.0833 321.441 41.353 330.196 45.8805 335.803C50.5251 341.554 58.1214 343.473 69.1313 343.473L69.1313 339.473C58.3525 339.473 52.4249 337.54 48.9926 333.29C45.4433 328.894 44.0833 321.496 44.0833 309.165L40.0833 309.165ZM69.1313 343.473L107.261 343.473L107.261 339.473L69.1313 339.473L69.1313 343.473ZM107.261 343.473C120.954 343.473 129.307 341.148 134.035 335.502C136.385 332.695 137.689 329.237 138.416 325.272C139.14 321.324 139.315 316.746 139.315 311.607L135.315 311.607C135.315 316.705 135.137 320.979 134.482 324.55C133.83 328.104 132.727 330.833 130.968 332.934C127.478 337.101 120.804 339.473 107.261 339.473L107.261 343.473ZM139.315 311.607L139.315 300.901L135.315 300.901L135.315 311.607L139.315 311.607ZM139.315 300.901C139.315 289.612 137.896 281.425 133.058 276.162C128.174 270.848 120.306 269.035 108.952 269.035L108.952 273.035C120.138 273.035 126.452 274.885 130.113 278.869C133.822 282.904 135.315 289.65 135.315 300.901L139.315 300.901ZM108.952 269.035L36.0727 269.035L36.0727 273.035L108.952 273.035L108.952 269.035ZM36.0727 269.035C25.7617 269.035 16.9635 270.383 10.75 275.101C4.39999 279.923 1.20181 287.888 1.20182 299.961L5.20182 299.961C5.20181 288.556 8.20214 282.058 13.169 278.286C18.2725 274.411 25.9098 273.035 36.0727 273.035L36.0727 269.035ZM1.20182 299.961L1.20182 312.546L5.20182 312.546L5.20182 299.961L1.20182 299.961ZM1.20182 312.546C1.20182 323.256 3.29272 331.15 8.04495 336.322C12.8407 341.542 19.9496 343.569 28.9565 343.473L28.9135 339.473C20.4519 339.564 14.6942 337.647 10.9905 333.616C7.24324 329.537 5.20182 322.874 5.20182 312.546L1.20182 312.546ZM28.935 343.473C30.5595 343.473 32.1643 342.969 33.3801 341.827C34.6162 340.666 35.2551 339.027 35.2551 337.152L31.2551 337.152C31.2551 338.095 30.9549 338.617 30.6414 338.911C30.3076 339.225 29.7523 339.473 28.935 339.473L28.935 343.473ZM71.761 319.187C69.4389 319.187 67.6158 319.16 66.1285 318.953C64.6566 318.749 63.7194 318.391 63.0657 317.877C61.7982 316.88 60.8005 314.629 60.8005 308.414L56.8005 308.414C56.8005 314.596 57.6812 318.731 60.5929 321.021C62.0289 322.151 63.7566 322.662 65.5776 322.915C67.3833 323.166 69.4812 323.187 71.761 323.187L71.761 319.187ZM60.8005 308.414L60.8005 304.094L56.8005 304.094L56.8005 308.414L60.8005 308.414ZM60.8005 304.094C60.8005 298.729 61.5555 296.349 62.8178 295.133C64.0983 293.899 66.4444 293.321 71.3853 293.321L71.3853 289.321C66.5589 289.321 62.6126 289.776 60.0425 292.252C57.4542 294.746 56.8005 298.752 56.8005 304.094L60.8005 304.094ZM71.3853 293.321L105.195 293.321L105.195 289.321L71.3853 289.321L71.3853 293.321ZM105.195 293.321C108.583 293.321 111.119 293.486 113.033 293.859C114.94 294.232 116.069 294.782 116.792 295.435C117.49 296.066 117.998 296.963 118.327 298.419C118.666 299.916 118.785 301.866 118.785 304.469L122.785 304.469C122.785 301.814 122.671 299.491 122.228 297.536C121.777 295.54 120.958 293.808 119.473 292.467C118.012 291.147 116.101 290.383 113.799 289.933C111.504 289.485 108.664 289.321 105.195 289.321L105.195 293.321ZM118.785 304.469L118.785 307.85L122.785 307.85L122.785 304.469L118.785 304.469ZM118.785 307.85C118.785 310.28 118.77 312.162 118.553 313.695C118.34 315.202 117.958 316.145 117.389 316.809C116.829 317.462 115.893 318.07 114.123 318.509C112.33 318.953 109.83 319.187 106.322 319.187L106.322 323.187C109.952 323.187 112.829 322.951 115.086 322.391C117.366 321.826 119.154 320.896 120.426 319.412C121.688 317.94 122.245 316.148 122.513 314.256C122.778 312.39 122.785 310.21 122.785 307.85L118.785 307.85ZM106.322 319.187L71.761 319.187L71.761 323.187L106.322 323.187L106.322 319.187ZM79.8378 209.953L79.8508 207.953L79.8378 207.953L79.8247 207.953L79.8378 209.953ZM108.764 210.14L108.751 212.14L108.764 212.14L108.764 210.14ZM107.825 190.418L107.842 188.418L107.838 188.418L107.825 190.418ZM79.8378 190.23L79.8512 188.23L79.8378 188.23L79.8378 190.23ZM8.83681 219.786C7.41797 219.786 5.76918 220.048 4.46708 221.153C3.09904 222.314 2.51664 224.05 2.51664 226.106L6.51664 226.106C6.51664 224.781 6.87341 224.357 7.05499 224.203C7.30252 223.993 7.81381 223.786 8.83681 223.786L8.83681 219.786ZM2.51664 226.106L2.51664 237.188L6.51664 237.188L6.51664 226.106L2.51664 226.106ZM2.51664 237.188C2.51664 239.063 3.1556 240.702 4.39169 241.863C5.60751 243.005 7.21228 243.509 8.83681 243.509L8.83681 239.509C8.0195 239.509 7.46419 239.261 7.13039 238.947C6.81685 238.653 6.51664 238.131 6.51664 237.188L2.51664 237.188ZM8.83681 243.509L13.157 243.509L13.157 239.509L8.83681 239.509L8.83681 243.509ZM13.157 243.509C27.5941 243.509 37.6167 235.141 47.1957 227.353C56.9211 219.445 66.2726 212.041 79.8509 211.953L79.8247 207.953C64.6645 208.052 54.2935 216.426 44.6721 224.249C34.9043 232.192 25.9557 239.509 13.157 239.509L13.157 243.509ZM79.8248 211.953L108.751 212.14L108.777 208.14L79.8508 207.953L79.8248 211.953ZM108.764 212.14C113.93 212.14 116.356 212.84 117.594 213.952C118.748 214.99 119.349 216.843 119.349 220.847L123.349 220.847C123.349 216.774 122.823 213.274 120.268 210.977C117.796 208.756 113.93 208.14 108.764 208.14L108.764 212.14ZM119.349 220.847L119.349 227.609L123.349 227.609L123.349 220.847L119.349 220.847ZM119.349 227.609C119.349 232.459 118.509 234.08 117.328 234.867C116.645 235.322 115.615 235.667 113.968 235.873C112.327 236.079 110.268 236.128 107.637 236.128L107.637 240.128C110.265 240.128 112.55 240.082 114.466 239.842C116.376 239.602 118.117 239.149 119.547 238.195C122.592 236.165 123.349 232.526 123.349 227.609L119.349 227.609ZM107.637 236.128L87.7268 236.128L87.7268 240.128L107.637 240.128L107.637 236.128ZM87.7268 236.128C86.308 236.128 84.6592 236.39 83.3571 237.495C81.9891 238.656 81.4067 240.392 81.4067 242.448L85.4067 242.448C85.4067 241.123 85.7634 240.699 85.945 240.545C86.1925 240.335 86.7038 240.128 87.7268 240.128L87.7268 236.128ZM81.4067 242.448L81.4067 253.53L85.4067 253.53L85.4067 242.448L81.4067 242.448ZM81.4067 253.53C81.4067 255.404 82.0456 257.043 83.2817 258.204C84.4975 259.346 86.1023 259.85 87.7268 259.85L87.7268 255.85C86.9095 255.85 86.3542 255.602 86.0204 255.289C85.7069 254.994 85.4067 254.473 85.4067 253.53L81.4067 253.53ZM87.7268 259.85L112.896 259.85L112.896 255.85L87.7268 255.85L87.7268 259.85ZM112.896 259.85C123.688 259.85 130.613 257.245 134.637 251.455C138.51 245.88 139.315 237.809 139.315 227.985L135.315 227.985C135.315 237.883 134.429 244.744 131.352 249.172C128.426 253.383 123.143 255.85 112.896 255.85L112.896 259.85ZM139.315 227.985L139.315 220.283L135.315 220.283L135.315 227.985L139.315 227.985ZM139.315 220.283C139.315 207.201 137.382 198.951 132.004 194.14C129.317 191.737 125.936 190.345 121.945 189.532C117.972 188.724 113.271 188.465 107.842 188.418L107.808 192.418C113.179 192.465 117.565 192.723 121.147 193.452C124.71 194.177 127.351 195.344 129.337 197.121C133.303 200.669 135.315 207.257 135.315 220.283L139.315 220.283ZM107.838 188.418L79.8512 188.23L79.8244 192.23L107.812 192.418L107.838 188.418ZM79.8378 188.23C64.0831 188.23 52.0093 196.521 41.6026 204.415C36.3291 208.414 31.5558 212.258 26.7918 215.145C22.0542 218.017 17.5647 219.786 12.9691 219.786L12.9691 223.786C18.6105 223.786 23.8414 221.611 28.8652 218.566C33.8627 215.537 38.8919 211.491 44.0198 207.602C54.4156 199.717 65.5392 192.23 79.8378 192.23L79.8378 188.23ZM12.9691 219.786L8.83681 219.786L8.83681 223.786L12.9691 223.786L12.9691 219.786ZM5.83148 137.315L7.83148 137.315L7.83148 135.315L5.83148 135.315L5.83148 137.315ZM5.83147 120.41L5.83147 122.41L7.83147 122.41L7.83147 120.41L5.83147 120.41ZM21.7973 139.569L23.7973 139.569L23.7973 139.394L23.7669 139.222L21.7973 139.569ZM21.2338 136.376L21.5457 134.401L18.7772 133.964L19.2642 136.724L21.2338 136.376ZM35.697 137.128L35.7255 135.128L35.7113 135.128L35.697 135.128L35.697 137.128ZM75.142 137.691L75.1134 139.691L75.1277 139.691L75.142 139.691L75.142 137.691ZM75.142 120.035L75.142 118.035L75.1278 118.035L75.1135 118.035L75.142 120.035ZM35.5091 120.598L35.5091 122.598L35.5234 122.598L35.5376 122.598L35.5091 120.598ZM21.2338 121.537L19.261 121.209L18.8048 123.946L21.5457 123.513L21.2338 121.537ZM21.7973 118.156L23.7701 118.485L23.7973 118.322L23.7973 118.156L21.7973 118.156ZM4.14097 118.41C2.73589 118.41 1.11282 118.667 -0.0510061 119.971C-1.14985 121.201 -1.42786 122.924 -1.42786 124.731L2.57214 124.731C2.57214 123.156 2.85763 122.719 2.93275 122.635C2.94287 122.623 3.10422 122.41 4.14097 122.41L4.14097 118.41ZM-1.42786 124.731L-1.42786 132.995L2.57214 132.995L2.57214 124.731L-1.42786 124.731ZM-1.42786 132.995C-1.42786 134.617 -1.11235 136.232 -0.115956 137.467C0.947589 138.786 2.48859 139.315 4.14098 139.315L4.14097 135.315C3.35152 135.315 3.10811 135.093 2.9977 134.956C2.82013 134.736 2.57214 134.191 2.57214 132.995L-1.42786 132.995ZM4.14098 139.315L5.83148 139.315L5.83148 135.315L4.14097 135.315L4.14098 139.315ZM3.83148 137.315L3.83148 140.884L7.83148 140.884L7.83148 137.315L3.83148 137.315ZM3.83148 140.884C3.83148 152.095 6.68321 161.143 12.409 167.404C18.1602 173.692 26.5493 176.882 37.0118 176.882L37.0118 172.882C27.3762 172.882 20.1751 169.968 15.3606 164.704C10.5208 159.413 7.83148 151.462 7.83148 140.884L3.83148 140.884ZM37.0118 176.882L106.134 176.882L106.134 172.882L37.0118 172.882L37.0118 176.882ZM106.134 176.882C116.597 176.882 124.986 173.692 130.737 167.404C136.463 161.143 139.315 152.095 139.315 140.884L135.315 140.884C135.315 151.462 132.625 159.413 127.786 164.704C122.971 169.968 115.77 172.882 106.134 172.882L106.134 176.882ZM139.315 140.884L139.315 117.781L135.315 117.781L135.315 140.884L139.315 140.884ZM139.315 117.781C139.315 106.569 136.463 97.5214 130.737 91.2612C124.986 84.9732 116.597 81.7829 106.134 81.7829L106.134 85.7829C115.77 85.7829 122.971 88.697 127.786 93.9608C132.625 99.2523 135.315 107.203 135.315 117.781L139.315 117.781ZM106.134 81.7829L37.0118 81.7829L37.0118 85.7829L106.134 85.7829L106.134 81.7829ZM37.0118 81.7829C26.5674 81.7829 18.1782 84.8683 12.4201 91.0614C6.68354 97.2314 3.83147 106.194 3.83147 117.405L7.83147 117.405C7.83147 106.828 10.5205 98.9789 15.3496 93.785C20.1571 88.6142 27.3581 85.7829 37.0118 85.7829L37.0118 81.7829ZM3.83147 117.405L3.83147 120.41L7.83147 120.41L7.83147 117.405L3.83147 117.405ZM5.83147 118.41L4.14097 118.41L4.14097 122.41L5.83147 122.41L5.83147 118.41ZM38.3266 153.16C32.5538 153.16 29.0359 151.654 26.9345 149.439C24.8144 147.205 23.7973 143.893 23.7973 139.569L19.7973 139.569C19.7973 144.449 20.9403 148.933 24.0326 152.192C27.1435 155.471 31.8904 157.16 38.3266 157.16L38.3266 153.16ZM23.7669 139.222L23.2034 136.029L19.2642 136.724L19.8277 139.917L23.7669 139.222ZM20.9219 138.352C24.6661 138.943 32.139 139.128 35.697 139.128L35.697 135.128C32.1172 135.128 24.9392 134.936 21.5457 134.401L20.9219 138.352ZM35.6684 139.127L75.1134 139.691L75.1705 135.691L35.7255 135.128L35.6684 139.127ZM75.142 139.691C76.7533 139.691 78.4048 139.197 79.69 138.121C81.0165 137.009 81.8378 135.366 81.8378 133.371L77.8378 133.371C77.8378 134.193 77.5321 134.71 77.1211 135.054C76.6689 135.433 75.9725 135.691 75.142 135.691L75.142 139.691ZM81.8378 133.371L81.8378 124.355L77.8378 124.355L77.8378 133.371L81.8378 133.371ZM81.8378 124.355C81.8378 122.177 81.0821 120.444 79.6125 119.332C78.2467 118.299 76.5636 118.035 75.142 118.035L75.142 122.035C76.1622 122.035 76.827 122.24 77.1987 122.522C77.4665 122.724 77.8378 123.152 77.8378 124.355L81.8378 124.355ZM75.1135 118.035L35.4807 118.598L35.5376 122.598L75.1704 122.034L75.1135 118.035ZM35.5091 118.598C31.8862 118.598 24.6339 118.976 20.9219 119.562L21.5457 123.513C24.9714 122.972 31.9944 122.598 35.5091 122.598L35.5091 118.598ZM23.2066 121.866L23.7701 118.485L19.8245 117.828L19.261 121.209L23.2066 121.866ZM23.7973 118.156C23.7973 113.834 24.8126 110.804 26.8716 108.819C28.9488 106.817 32.4722 105.505 38.3266 105.505L38.3266 101.505C31.9719 101.505 27.2306 102.917 24.0955 105.94C20.9421 108.979 19.7973 113.275 19.7973 118.156L23.7973 118.156ZM38.3266 105.505L104.82 105.505L104.82 101.505L38.3266 101.505L38.3266 105.505ZM104.82 105.505C110.593 105.505 114.11 107.01 116.212 109.226C118.332 111.46 119.349 114.772 119.349 119.096L123.349 119.096C123.349 114.215 122.206 109.732 119.114 106.472C116.003 103.193 111.256 101.505 104.82 101.505L104.82 105.505ZM119.349 119.096L119.349 139.569L123.349 139.569L123.349 119.096L119.349 119.096ZM119.349 139.569C119.349 143.893 118.332 147.205 116.212 149.439C114.11 151.654 110.593 153.16 104.82 153.16L104.82 157.16C111.256 157.16 116.003 155.471 119.114 152.192C122.206 148.933 123.349 144.449 123.349 139.569L119.349 139.569ZM104.82 153.16L38.3266 153.16L38.3266 157.16L104.82 157.16L104.82 153.16ZM138 64.5564L138 53.4742L134 53.4742L134 64.5564L138 64.5564ZM138 53.4742C138 51.4183 137.418 49.682 136.05 48.5212C134.747 47.4164 133.099 47.154 131.68 47.154L131.68 51.154C132.703 51.154 133.214 51.3612 133.462 51.5713C133.643 51.7253 134 52.1491 134 53.4742L138 53.4742ZM131.68 47.154L33.6308 47.154L33.6308 51.154L131.68 51.154L131.68 47.154ZM33.6308 47.154C30.8423 47.154 28.6612 47.0478 26.9422 46.764C25.2237 46.4803 24.1164 46.0415 23.3675 45.4838C21.9948 44.4615 21.1676 42.5166 21.1676 37.6962L17.1676 37.6962C17.1676 42.6432 17.9371 46.4271 20.9784 48.692C22.4366 49.7778 24.2407 50.3721 26.2906 50.7106C28.34 51.0489 30.7843 51.154 33.6308 51.154L33.6308 47.154ZM21.1676 37.6962L21.1676 31.6855L17.1676 31.6855L17.1676 37.6962L21.1676 37.6962ZM21.1676 31.6855C21.1676 27.0277 22.0601 25.0008 23.4117 23.9345C24.9181 22.7461 27.5744 22.2277 32.5038 22.2277L32.5038 18.2277C27.6659 18.2277 23.6541 18.6484 20.9342 20.7941C18.0596 23.0619 17.1676 26.7639 17.1676 31.6855L21.1676 31.6855ZM32.5038 22.2277L131.68 22.2277L131.68 18.2277L32.5038 18.2277L32.5038 22.2277ZM131.68 22.2277C133.304 22.2277 134.909 21.724 136.125 20.5819C137.361 19.4207 138 17.7821 138 15.9075L134 15.9075C134 16.8505 133.7 17.3719 133.386 17.6665C133.052 17.98 132.497 18.2277 131.68 18.2277L131.68 22.2277ZM138 15.9075L138 4.82534L134 4.82534L134 15.9075L138 15.9075ZM138 4.82534C138 2.76946 137.418 1.03314 136.05 -0.127631C134.747 -1.23243 133.099 -1.49482 131.68 -1.49482L131.68 2.50518C132.703 2.50518 133.214 2.7124 133.462 2.92242C133.643 3.07647 134 3.50024 134 4.82534L138 4.82534ZM131.68 -1.49482L33.6308 -1.49481L33.6308 2.50519L131.68 2.50518L131.68 -1.49482ZM33.6308 -1.49481C25.026 -1.49481 16.8091 -0.878298 10.7863 3.35324C4.57698 7.71582 1.2018 15.5044 1.2018 28.4924L5.2018 28.4924C5.2018 16.1228 8.40079 9.91781 13.0858 6.62619C17.9573 3.20352 24.9549 2.50519 33.6308 2.50519L33.6308 -1.49481ZM1.2018 28.4924L1.2018 40.8894L5.2018 40.8894L5.2018 28.4924L1.2018 28.4924ZM1.2018 40.8894C1.2018 52.1503 3.42841 59.8853 8.84822 64.691C14.2047 69.4406 22.1978 70.8765 32.5038 70.8765L32.5038 66.8765C22.336 66.8765 15.6781 65.4011 11.502 61.6981C7.38928 58.0514 5.2018 51.7928 5.2018 40.8894L1.2018 40.8894ZM32.5038 70.8765L131.68 70.8765L131.68 66.8765L32.5038 66.8765L32.5038 70.8765ZM131.68 70.8765C133.304 70.8765 134.909 70.3728 136.125 69.2307C137.361 68.0695 138 66.4309 138 64.5564L134 64.5564C134 65.4993 133.7 66.0208 133.386 66.3153C133.052 66.6289 132.497 66.8765 131.68 66.8765L131.68 70.8765Z" fill="white"/>
</svg>
