<svg width="17" height="12" viewBox="0 0 17 12" fill="none" xmlns="http://www.w3.org/2000/svg">
<path d="M16.375 7.8125C16.3762 8.3299 16.2751 8.84244 16.0776 9.32068C15.8802 9.79892 15.5902 10.2334 15.2243 10.5993C14.8584 10.9652 14.4239 11.2552 13.9457 11.4526C13.4674 11.6501 12.9549 11.7512 12.4375 11.75H10.25C10.0179 11.75 9.79538 11.6578 9.63128 11.4937C9.46719 11.3296 9.375 11.1071 9.375 10.875C9.375 10.6429 9.46719 10.4204 9.63128 10.2563C9.79538 10.0922 10.0179 10 10.25 10H12.4375C13.0177 10 13.5741 9.76953 13.9843 9.3593C14.3945 8.94906 14.625 8.39266 14.625 7.8125C14.625 7.23234 14.3945 6.67594 13.9843 6.2657C13.5741 5.85547 13.0177 5.625 12.4375 5.625H3.425L5.525 7.725C5.65101 7.86678 5.71808 8.05135 5.71249 8.24095C5.70691 8.43055 5.6291 8.61085 5.49498 8.74497C5.36085 8.8791 5.18055 8.95691 4.99095 8.96249C4.80135 8.96807 4.61678 8.901 4.475 8.775L0.975002 5.275C0.836078 5.1356 0.758072 4.94681 0.758072 4.75C0.758072 4.55319 0.836078 4.36441 0.975002 4.225L4.475 0.725C4.61678 0.598997 4.80135 0.531927 4.99095 0.537508C5.18055 0.543089 5.36085 0.620901 5.49498 0.755026C5.6291 0.88915 5.70691 1.06945 5.71249 1.25905C5.71808 1.44865 5.65101 1.63322 5.525 1.775L3.425 3.875H12.4375C12.9549 3.87385 13.4674 3.97491 13.9457 4.17238C14.4239 4.36984 14.8584 4.65983 15.2243 5.02569C15.5902 5.39156 15.8802 5.82608 16.0776 6.30432C16.2751 6.78256 16.3762 7.2951 16.375 7.8125Z" fill="#222221" fill-opacity="0.45"/>
</svg>
